<mxfile host="65bd71144e">
    <diagram id="jVbvMs1a4yis1M7s5EpP" name="Page-1">
        <mxGraphModel dx="3123" dy="2930" grid="1" gridSize="10" guides="1" tooltips="1" connect="1" arrows="1" fold="1" page="1" pageScale="1" pageWidth="850" pageHeight="1100" math="0" shadow="0">
            <root>
                <mxCell id="0"/>
                <mxCell id="1" parent="0"/>
                <mxCell id="93" value="" style="edgeStyle=none;html=1;fontFamily=Helvetica;fontSize=12;fontColor=default;" edge="1" parent="1" source="88" target="92">
                    <mxGeometry relative="1" as="geometry"/>
                </mxCell>
                <mxCell id="95" value="" style="edgeStyle=none;html=1;fontFamily=Helvetica;fontSize=12;fontColor=default;" edge="1" parent="1" source="92" target="94">
                    <mxGeometry relative="1" as="geometry"/>
                </mxCell>
                <mxCell id="97" value="" style="edgeStyle=none;html=1;fontFamily=Helvetica;fontSize=12;fontColor=default;" edge="1" parent="1" source="92" target="96">
                    <mxGeometry relative="1" as="geometry"/>
                </mxCell>
                <mxCell id="102" value="" style="edgeStyle=none;html=1;fontFamily=Helvetica;fontSize=12;fontColor=default;" edge="1" parent="1" source="92" target="101">
                    <mxGeometry relative="1" as="geometry"/>
                </mxCell>
                <mxCell id="92" value="Full Load" style="ellipse;whiteSpace=wrap;html=1;fontSize=18;fillColor=#ffe6cc;strokeColor=#d79b00;fontStyle=1;sketch=1;curveFitting=1;jiggle=2;" vertex="1" parent="1">
                    <mxGeometry x="10" y="1135.75" width="100" height="100" as="geometry"/>
                </mxCell>
                <mxCell id="6" value="" style="edgeStyle=none;html=1;" edge="1" parent="1" source="2" target="5">
                    <mxGeometry relative="1" as="geometry"/>
                </mxCell>
                <mxCell id="80" value="" style="edgeStyle=none;html=1;fontFamily=Helvetica;fontSize=12;fontColor=default;exitX=0;exitY=1;exitDx=0;exitDy=0;" edge="1" parent="1" source="2" target="79">
                    <mxGeometry relative="1" as="geometry">
                        <mxPoint x="512.0664405705429" y="629.9987066477345" as="sourcePoint"/>
                    </mxGeometry>
                </mxCell>
                <mxCell id="2" value="ETL" style="ellipse;html=1;aspect=fixed;textShadow=0;whiteSpace=wrap;horizontal=1;fontStyle=1;fontSize=70;" vertex="1" parent="1">
                    <mxGeometry x="720" y="460" width="380" height="380" as="geometry"/>
                </mxCell>
                <mxCell id="8" value="" style="edgeStyle=none;html=1;" edge="1" parent="1" source="5" target="7">
                    <mxGeometry relative="1" as="geometry"/>
                </mxCell>
                <mxCell id="23" style="edgeStyle=none;html=1;entryX=0.5;entryY=1;entryDx=0;entryDy=0;" edge="1" parent="1" source="5" target="19">
                    <mxGeometry relative="1" as="geometry"/>
                </mxCell>
                <mxCell id="152" style="edgeStyle=none;html=1;entryX=0;entryY=1;entryDx=0;entryDy=0;fontFamily=Helvetica;fontSize=12;fontColor=default;exitX=1;exitY=0.5;exitDx=0;exitDy=0;" edge="1" parent="1" source="5" target="26">
                    <mxGeometry relative="1" as="geometry">
                        <mxPoint x="1041.487415757079" y="366.6549387612599" as="sourcePoint"/>
                    </mxGeometry>
                </mxCell>
                <mxCell id="5" value="Extraction" style="ellipse;whiteSpace=wrap;html=1;fillColor=#e1d5e7;strokeColor=#9673a6;labelBackgroundColor=none;labelBorderColor=none;fontSize=18;spacing=0;fontStyle=1;sketch=1;curveFitting=1;jiggle=2;" vertex="1" parent="1">
                    <mxGeometry x="750" y="260" width="120" height="120" as="geometry"/>
                </mxCell>
                <mxCell id="16" value="" style="edgeStyle=none;html=1;exitX=0.5;exitY=0;exitDx=0;exitDy=0;entryX=0.5;entryY=1;entryDx=0;entryDy=0;" edge="1" parent="1" source="7" target="15">
                    <mxGeometry relative="1" as="geometry"/>
                </mxCell>
                <mxCell id="7" value="Extraction Methods" style="ellipse;whiteSpace=wrap;html=1;fillColor=#e1d5e7;strokeColor=#9673a6;labelBackgroundColor=none;labelBorderColor=none;fontStyle=1;fontSize=15;sketch=1;curveFitting=1;jiggle=2;" vertex="1" parent="1">
                    <mxGeometry x="375" y="140" width="100" height="100" as="geometry"/>
                </mxCell>
                <mxCell id="9" value="Pull Extraction" style="ellipse;whiteSpace=wrap;html=1;fillColor=none;strokeColor=#9673a6;labelBackgroundColor=none;labelBorderColor=none;fontStyle=0;dashed=1;align=center;verticalAlign=middle;fontFamily=Helvetica;fontSize=12;shadow=0;sketch=1;jiggle=2;curveFitting=1;strokeWidth=2;" vertex="1" parent="1">
                    <mxGeometry x="212.5" y="-75" width="90" height="90" as="geometry"/>
                </mxCell>
                <mxCell id="11" value="" style="endArrow=classic;html=1;entryX=0.556;entryY=1;entryDx=0;entryDy=0;entryPerimeter=0;exitX=0.5;exitY=0;exitDx=0;exitDy=0;" edge="1" parent="1" source="7" target="9">
                    <mxGeometry width="50" height="50" relative="1" as="geometry">
                        <mxPoint x="650" y="-10" as="sourcePoint"/>
                        <mxPoint x="700" y="-60" as="targetPoint"/>
                    </mxGeometry>
                </mxCell>
                <mxCell id="15" value="Push Extraction" style="ellipse;whiteSpace=wrap;html=1;fillColor=none;strokeColor=#9673a6;labelBackgroundColor=none;labelBorderColor=none;dashed=1;align=center;verticalAlign=middle;fontFamily=Helvetica;fontSize=12;shadow=0;sketch=1;jiggle=2;curveFitting=1;strokeWidth=2;" vertex="1" parent="1">
                    <mxGeometry x="380" y="-80" width="80" height="80" as="geometry"/>
                </mxCell>
                <mxCell id="18" value="" style="edgeStyle=none;html=1;exitX=0.5;exitY=0;exitDx=0;exitDy=0;entryX=0.5;entryY=1;entryDx=0;entryDy=0;" edge="1" parent="1" source="19" target="22">
                    <mxGeometry relative="1" as="geometry"/>
                </mxCell>
                <mxCell id="19" value="Extract Type" style="ellipse;whiteSpace=wrap;html=1;fillColor=#e1d5e7;strokeColor=#9673a6;labelBackgroundColor=none;labelBorderColor=none;fontStyle=1;fontSize=15;sketch=1;curveFitting=1;jiggle=2;" vertex="1" parent="1">
                    <mxGeometry x="810" y="25" width="100" height="100" as="geometry"/>
                </mxCell>
                <mxCell id="20" value="Full Extraction" style="ellipse;whiteSpace=wrap;html=1;fillColor=none;strokeColor=#9673a6;labelBackgroundColor=none;labelBorderColor=none;fontStyle=0;dashed=1;align=center;verticalAlign=middle;fontFamily=Helvetica;fontSize=12;shadow=0;sketch=1;jiggle=2;curveFitting=1;strokeWidth=2;" vertex="1" parent="1">
                    <mxGeometry x="700" y="-205" width="90" height="90" as="geometry"/>
                </mxCell>
                <mxCell id="21" value="" style="endArrow=classic;html=1;entryX=0.556;entryY=1;entryDx=0;entryDy=0;entryPerimeter=0;exitX=0.5;exitY=0;exitDx=0;exitDy=0;" edge="1" parent="1" source="19" target="20">
                    <mxGeometry width="50" height="50" relative="1" as="geometry">
                        <mxPoint x="1060" y="5" as="sourcePoint"/>
                        <mxPoint x="1110" y="-45" as="targetPoint"/>
                    </mxGeometry>
                </mxCell>
                <mxCell id="22" value="Full Extraction" style="ellipse;whiteSpace=wrap;html=1;fillColor=none;strokeColor=#9673a6;labelBackgroundColor=none;labelBorderColor=none;dashed=1;shadow=0;sketch=1;jiggle=2;curveFitting=1;strokeWidth=2;align=center;verticalAlign=middle;fontFamily=Helvetica;fontSize=12;" vertex="1" parent="1">
                    <mxGeometry x="850" y="-200" width="90" height="90" as="geometry"/>
                </mxCell>
                <mxCell id="25" value="" style="edgeStyle=none;html=1;exitX=0.5;exitY=0;exitDx=0;exitDy=0;entryX=0.5;entryY=1;entryDx=0;entryDy=0;" edge="1" parent="1" source="26" target="29">
                    <mxGeometry relative="1" as="geometry"/>
                </mxCell>
                <mxCell id="42" style="edgeStyle=none;html=1;entryX=0;entryY=1;entryDx=0;entryDy=0;" edge="1" parent="1" source="26" target="37">
                    <mxGeometry relative="1" as="geometry"/>
                </mxCell>
                <mxCell id="43" style="edgeStyle=none;html=1;entryX=0;entryY=0.5;entryDx=0;entryDy=0;" edge="1" parent="1" source="26" target="34">
                    <mxGeometry relative="1" as="geometry"/>
                </mxCell>
                <mxCell id="44" style="edgeStyle=none;html=1;" edge="1" parent="1" source="26" target="38">
                    <mxGeometry relative="1" as="geometry"/>
                </mxCell>
                <mxCell id="45" style="edgeStyle=none;html=1;" edge="1" parent="1" source="26" target="36">
                    <mxGeometry relative="1" as="geometry"/>
                </mxCell>
                <mxCell id="46" style="edgeStyle=none;html=1;entryX=0.5;entryY=0;entryDx=0;entryDy=0;" edge="1" parent="1" source="26" target="35">
                    <mxGeometry relative="1" as="geometry"/>
                </mxCell>
                <mxCell id="26" value="Extract Techniques" style="ellipse;whiteSpace=wrap;html=1;fillColor=#e1d5e7;strokeColor=#9673a6;labelBackgroundColor=none;labelBorderColor=none;fontStyle=1;fontSize=15;sketch=1;curveFitting=1;jiggle=2;" vertex="1" parent="1">
                    <mxGeometry x="1210" y="90" width="100" height="100" as="geometry"/>
                </mxCell>
                <mxCell id="27" value="Manual Data Extraction&amp;nbsp;" style="ellipse;whiteSpace=wrap;html=1;fillColor=none;strokeColor=#9673a6;labelBackgroundColor=none;labelBorderColor=none;fontStyle=0;dashed=1;align=center;verticalAlign=middle;fontFamily=Helvetica;fontSize=12;shadow=0;sketch=1;jiggle=2;curveFitting=1;strokeWidth=2;" vertex="1" parent="1">
                    <mxGeometry x="1080" y="-125" width="90" height="90" as="geometry"/>
                </mxCell>
                <mxCell id="28" value="" style="endArrow=classic;html=1;entryX=0.556;entryY=1;entryDx=0;entryDy=0;entryPerimeter=0;exitX=0.5;exitY=0;exitDx=0;exitDy=0;" edge="1" parent="1" source="26" target="27">
                    <mxGeometry width="50" height="50" relative="1" as="geometry">
                        <mxPoint x="1440" y="85" as="sourcePoint"/>
                        <mxPoint x="1490" y="35" as="targetPoint"/>
                    </mxGeometry>
                </mxCell>
                <mxCell id="29" value="Database Querying" style="ellipse;whiteSpace=wrap;html=1;fillColor=none;strokeColor=#9673a6;labelBackgroundColor=none;labelBorderColor=none;dashed=1;shadow=0;sketch=1;jiggle=2;curveFitting=1;strokeWidth=2;align=center;verticalAlign=middle;fontFamily=Helvetica;fontSize=12;" vertex="1" parent="1">
                    <mxGeometry x="1220" y="-210" width="90" height="90" as="geometry"/>
                </mxCell>
                <mxCell id="33" value="Database Querying" style="ellipse;whiteSpace=wrap;html=1;fillColor=none;strokeColor=#9673a6;labelBackgroundColor=none;labelBorderColor=none;dashed=1;shadow=0;sketch=1;jiggle=2;curveFitting=1;strokeWidth=2;align=center;verticalAlign=middle;fontFamily=Helvetica;fontSize=12;" vertex="1" parent="1">
                    <mxGeometry x="1360" y="-210" width="90" height="90" as="geometry"/>
                </mxCell>
                <mxCell id="34" value="API Calls" style="ellipse;whiteSpace=wrap;html=1;fillColor=none;strokeColor=#9673a6;labelBackgroundColor=none;labelBorderColor=none;dashed=1;shadow=0;sketch=1;jiggle=2;curveFitting=1;strokeWidth=2;align=center;verticalAlign=middle;fontFamily=Helvetica;fontSize=12;" vertex="1" parent="1">
                    <mxGeometry x="1490" width="90" height="90" as="geometry"/>
                </mxCell>
                <mxCell id="35" value="Web Scraping" style="ellipse;whiteSpace=wrap;html=1;fillColor=none;strokeColor=#9673a6;labelBackgroundColor=none;labelBorderColor=none;dashed=1;strokeWidth=2;perimeterSpacing=2;shadow=0;sketch=1;curveFitting=1;jiggle=2;" vertex="1" parent="1">
                    <mxGeometry x="1280" y="270" width="90" height="90" as="geometry"/>
                </mxCell>
                <mxCell id="36" value="Event based Streaming" style="ellipse;whiteSpace=wrap;html=1;fillColor=none;strokeColor=#9673a6;labelBackgroundColor=none;labelBorderColor=none;dashed=1;shadow=0;sketch=1;jiggle=2;curveFitting=1;strokeWidth=2;align=center;verticalAlign=middle;fontFamily=Helvetica;fontSize=12;" vertex="1" parent="1">
                    <mxGeometry x="1430" y="240" width="90" height="90" as="geometry"/>
                </mxCell>
                <mxCell id="37" value="File parsing" style="ellipse;whiteSpace=wrap;html=1;fillColor=none;strokeColor=#9673a6;labelBackgroundColor=none;labelBorderColor=none;dashed=1;shadow=0;sketch=1;jiggle=2;curveFitting=1;strokeWidth=2;align=center;verticalAlign=middle;fontFamily=Helvetica;fontSize=12;" vertex="1" parent="1">
                    <mxGeometry x="1490" y="-130" width="90" height="90" as="geometry"/>
                </mxCell>
                <mxCell id="38" value="CDC" style="ellipse;whiteSpace=wrap;html=1;fillColor=none;strokeColor=#9673a6;labelBackgroundColor=none;labelBorderColor=none;dashed=1;shadow=0;sketch=1;jiggle=2;curveFitting=1;strokeWidth=2;align=center;verticalAlign=middle;fontFamily=Helvetica;fontSize=12;" vertex="1" parent="1">
                    <mxGeometry x="1490" y="130" width="90" height="90" as="geometry"/>
                </mxCell>
                <mxCell id="39" value="" style="endArrow=classic;html=1;entryX=0.381;entryY=0.974;entryDx=0;entryDy=0;entryPerimeter=0;" edge="1" parent="1" target="33">
                    <mxGeometry width="50" height="50" relative="1" as="geometry">
                        <mxPoint x="1260" y="90" as="sourcePoint"/>
                        <mxPoint x="1310" y="40" as="targetPoint"/>
                    </mxGeometry>
                </mxCell>
                <mxCell id="82" value="" style="edgeStyle=none;html=1;fontFamily=Helvetica;fontSize=12;fontColor=default;" edge="1" parent="1" source="79" target="81">
                    <mxGeometry relative="1" as="geometry"/>
                </mxCell>
                <mxCell id="89" value="" style="edgeStyle=none;html=1;fontFamily=Helvetica;fontSize=12;fontColor=default;" edge="1" parent="1" source="79" target="88">
                    <mxGeometry relative="1" as="geometry"/>
                </mxCell>
                <mxCell id="113" value="" style="edgeStyle=none;html=1;fontFamily=Helvetica;fontSize=12;fontColor=default;" edge="1" parent="1" source="79" target="112">
                    <mxGeometry relative="1" as="geometry"/>
                </mxCell>
                <mxCell id="79" value="&lt;div&gt;Load&lt;/div&gt;" style="ellipse;whiteSpace=wrap;html=1;fontSize=18;fontStyle=1;fillColor=#ffe6cc;strokeColor=#d79b00;sketch=1;curveFitting=1;jiggle=2;verticalAlign=middle;" vertex="1" parent="1">
                    <mxGeometry x="230" y="825.75" width="140" height="140" as="geometry"/>
                </mxCell>
                <mxCell id="84" value="" style="edgeStyle=none;html=1;fontFamily=Helvetica;fontSize=12;fontColor=default;" edge="1" parent="1" source="81">
                    <mxGeometry relative="1" as="geometry">
                        <mxPoint x="-2.3076923076923777" y="815.75" as="targetPoint"/>
                    </mxGeometry>
                </mxCell>
                <mxCell id="85" value="" style="edgeStyle=none;html=1;fontFamily=Helvetica;fontSize=12;fontColor=default;" edge="1" parent="1" source="81">
                    <mxGeometry relative="1" as="geometry">
                        <mxPoint x="-2.3076923076923777" y="815.75" as="targetPoint"/>
                    </mxGeometry>
                </mxCell>
                <mxCell id="87" value="" style="edgeStyle=none;html=1;fontFamily=Helvetica;fontSize=12;fontColor=default;" edge="1" parent="1" source="81" target="86">
                    <mxGeometry relative="1" as="geometry"/>
                </mxCell>
                <mxCell id="81" value="Processing Types" style="ellipse;whiteSpace=wrap;html=1;fontSize=18;fillColor=#ffe6cc;strokeColor=#d79b00;fontStyle=1;sketch=1;curveFitting=1;jiggle=2;" vertex="1" parent="1">
                    <mxGeometry x="-80" y="915.75" width="130" height="130" as="geometry"/>
                </mxCell>
                <mxCell id="83" value="Batch Processing" style="whiteSpace=wrap;html=1;fontSize=18;fillColor=none;strokeColor=#d79b00;fontStyle=1;sketch=1;curveFitting=1;jiggle=2;" vertex="1" parent="1">
                    <mxGeometry x="-60" y="755.75" width="120" height="60" as="geometry"/>
                </mxCell>
                <mxCell id="86" value="&lt;div&gt;&lt;font color=&quot;#000000&quot;&gt;stream processing&lt;/font&gt;&lt;/div&gt;" style="whiteSpace=wrap;html=1;fontSize=18;fillColor=none;strokeColor=#d79b00;fontStyle=1;sketch=1;curveFitting=1;jiggle=2;" vertex="1" parent="1">
                    <mxGeometry x="-230" y="755.75" width="120" height="60" as="geometry"/>
                </mxCell>
                <mxCell id="111" style="edgeStyle=none;html=1;fontFamily=Helvetica;fontSize=12;fontColor=default;" edge="1" parent="1" source="88" target="107">
                    <mxGeometry relative="1" as="geometry"/>
                </mxCell>
                <mxCell id="88" value="Load Methods" style="ellipse;whiteSpace=wrap;html=1;fontSize=18;fillColor=#ffe6cc;strokeColor=#d79b00;fontStyle=1;sketch=1;curveFitting=1;jiggle=2;" vertex="1" parent="1">
                    <mxGeometry x="190" y="1035.75" width="120" height="120" as="geometry"/>
                </mxCell>
                <mxCell id="94" value="&lt;div&gt;&lt;font color=&quot;#000000&quot;&gt;Truncate &amp;amp; Insert&lt;/font&gt;&lt;/div&gt;" style="whiteSpace=wrap;html=1;fontSize=18;fillColor=#ffe6cc;strokeColor=#d79b00;fontStyle=1;sketch=1;curveFitting=1;jiggle=2;" vertex="1" parent="1">
                    <mxGeometry x="-200" y="1275.75" width="120" height="60" as="geometry"/>
                </mxCell>
                <mxCell id="96" value="&lt;div&gt;&lt;font color=&quot;#000000&quot;&gt;Upsert&lt;/font&gt;&lt;/div&gt;" style="whiteSpace=wrap;html=1;fontSize=18;fillColor=#ffe6cc;strokeColor=#d79b00;fontStyle=1;sketch=1;curveFitting=1;jiggle=2;" vertex="1" parent="1">
                    <mxGeometry x="-180" y="1155.75" width="120" height="60" as="geometry"/>
                </mxCell>
                <mxCell id="101" value="Drop, Create, Insert" style="whiteSpace=wrap;html=1;fontSize=18;fillColor=#ffe6cc;strokeColor=#d79b00;fontStyle=1;sketch=1;curveFitting=1;jiggle=2;" vertex="1" parent="1">
                    <mxGeometry x="-50" y="1305.75" width="140" height="60" as="geometry"/>
                </mxCell>
                <mxCell id="104" value="" style="edgeStyle=none;html=1;fontFamily=Helvetica;fontSize=12;fontColor=default;" edge="1" parent="1" source="107" target="108">
                    <mxGeometry relative="1" as="geometry"/>
                </mxCell>
                <mxCell id="105" value="" style="edgeStyle=none;html=1;fontFamily=Helvetica;fontSize=12;fontColor=default;" edge="1" parent="1" source="107" target="109">
                    <mxGeometry relative="1" as="geometry"/>
                </mxCell>
                <mxCell id="106" value="" style="edgeStyle=none;html=1;fontFamily=Helvetica;fontSize=12;fontColor=default;" edge="1" parent="1" source="107" target="110">
                    <mxGeometry relative="1" as="geometry"/>
                </mxCell>
                <mxCell id="107" value="&lt;div&gt;&lt;font color=&quot;#000000&quot;&gt;Incremental Load&lt;/font&gt;&lt;/div&gt;" style="ellipse;whiteSpace=wrap;html=1;fontSize=18;fillColor=#ffe6cc;strokeColor=#d79b00;fontStyle=1;sketch=1;curveFitting=1;jiggle=2;" vertex="1" parent="1">
                    <mxGeometry x="340" y="1155.75" width="120" height="115" as="geometry"/>
                </mxCell>
                <mxCell id="108" value="&lt;div&gt;&lt;font color=&quot;#000000&quot;&gt;Append&lt;/font&gt;&lt;/div&gt;" style="whiteSpace=wrap;html=1;fontSize=18;fillColor=#ffe6cc;strokeColor=#d79b00;fontStyle=1;sketch=1;curveFitting=1;jiggle=2;" vertex="1" parent="1">
                    <mxGeometry x="360" y="1318.25" width="110" height="50" as="geometry"/>
                </mxCell>
                <mxCell id="109" value="&lt;div&gt;&lt;font color=&quot;#000000&quot;&gt;Upsert&lt;/font&gt;&lt;/div&gt;" style="whiteSpace=wrap;html=1;fontSize=18;fillColor=#ffe6cc;strokeColor=#d79b00;fontStyle=1;sketch=1;curveFitting=1;jiggle=2;" vertex="1" parent="1">
                    <mxGeometry x="197.5" y="1313.25" width="105" height="60" as="geometry"/>
                </mxCell>
                <mxCell id="110" value="Merge" style="whiteSpace=wrap;html=1;fontSize=18;fillColor=#ffe6cc;strokeColor=#d79b00;fontStyle=1;sketch=1;curveFitting=1;jiggle=2;" vertex="1" parent="1">
                    <mxGeometry x="520" y="1320.75" width="120" height="45" as="geometry"/>
                </mxCell>
                <mxCell id="115" value="" style="edgeStyle=none;html=1;fontFamily=Helvetica;fontSize=12;fontColor=default;" edge="1" parent="1" source="112" target="114">
                    <mxGeometry relative="1" as="geometry"/>
                </mxCell>
                <mxCell id="117" value="" style="edgeStyle=none;html=1;fontFamily=Helvetica;fontSize=12;fontColor=default;" edge="1" parent="1" source="112" target="116">
                    <mxGeometry relative="1" as="geometry"/>
                </mxCell>
                <mxCell id="119" value="" style="edgeStyle=none;html=1;fontFamily=Helvetica;fontSize=12;fontColor=default;" edge="1" parent="1" source="112" target="118">
                    <mxGeometry relative="1" as="geometry"/>
                </mxCell>
                <mxCell id="112" value="&lt;div&gt;Slowly Changing Dimensions (SCD)&lt;/div&gt;" style="ellipse;whiteSpace=wrap;html=1;fontSize=18;fontStyle=1;fillColor=#ffe6cc;strokeColor=#d79b00;sketch=1;curveFitting=1;jiggle=2;verticalAlign=middle;" vertex="1" parent="1">
                    <mxGeometry x="500" y="945.75" width="140" height="140" as="geometry"/>
                </mxCell>
                <mxCell id="114" value="SCD 0&amp;nbsp;&lt;div&gt;(No Historization)&lt;/div&gt;" style="whiteSpace=wrap;html=1;fontSize=18;fillColor=#ffe6cc;strokeColor=#d79b00;fontStyle=1;sketch=1;curveFitting=1;jiggle=2;" vertex="1" parent="1">
                    <mxGeometry x="730" y="985.75" width="180" height="80" as="geometry"/>
                </mxCell>
                <mxCell id="116" value="&lt;div&gt;&lt;font color=&quot;#000000&quot;&gt;SCD 1 (Overwrite)&lt;/font&gt;&lt;/div&gt;" style="whiteSpace=wrap;html=1;fontSize=18;fillColor=#ffe6cc;strokeColor=#d79b00;fontStyle=1;sketch=1;curveFitting=1;jiggle=2;" vertex="1" parent="1">
                    <mxGeometry x="730" y="1125.75" width="180" height="50" as="geometry"/>
                </mxCell>
                <mxCell id="118" value="SCD 2 (Historization)" style="whiteSpace=wrap;html=1;fontSize=18;fillColor=#ffe6cc;strokeColor=#d79b00;fontStyle=1;sketch=1;curveFitting=1;jiggle=2;" vertex="1" parent="1">
                    <mxGeometry x="580" y="1205.75" width="170" height="60" as="geometry"/>
                </mxCell>
                <mxCell id="124" value="" style="edgeStyle=none;html=1;fontFamily=Helvetica;fontSize=12;fontColor=default;" edge="1" parent="1" source="120" target="123">
                    <mxGeometry relative="1" as="geometry"/>
                </mxCell>
                <mxCell id="125" value="" style="edgeStyle=none;html=1;fontFamily=Helvetica;fontSize=12;fontColor=default;" edge="1" parent="1" source="120" target="123">
                    <mxGeometry relative="1" as="geometry"/>
                </mxCell>
                <mxCell id="127" value="" style="edgeStyle=none;html=1;fontFamily=Helvetica;fontSize=12;fontColor=default;" edge="1" parent="1" source="120" target="126">
                    <mxGeometry relative="1" as="geometry"/>
                </mxCell>
                <mxCell id="133" style="edgeStyle=none;html=1;entryX=0.5;entryY=1;entryDx=0;entryDy=0;fontFamily=Helvetica;fontSize=12;fontColor=default;" edge="1" parent="1" source="120" target="128">
                    <mxGeometry relative="1" as="geometry"/>
                </mxCell>
                <mxCell id="134" style="edgeStyle=none;html=1;fontFamily=Helvetica;fontSize=12;fontColor=default;" edge="1" parent="1" source="120" target="129">
                    <mxGeometry relative="1" as="geometry"/>
                </mxCell>
                <mxCell id="135" style="edgeStyle=none;html=1;entryX=0.75;entryY=0;entryDx=0;entryDy=0;fontFamily=Helvetica;fontSize=12;fontColor=default;" edge="1" parent="1" source="120" target="130">
                    <mxGeometry relative="1" as="geometry"/>
                </mxCell>
                <mxCell id="136" style="edgeStyle=none;html=1;entryX=0.5;entryY=0;entryDx=0;entryDy=0;fontFamily=Helvetica;fontSize=12;fontColor=default;" edge="1" parent="1" source="120" target="131">
                    <mxGeometry relative="1" as="geometry"/>
                </mxCell>
                <mxCell id="138" value="" style="edgeStyle=none;html=1;fontFamily=Helvetica;fontSize=12;fontColor=default;" edge="1" parent="1" source="120" target="137">
                    <mxGeometry relative="1" as="geometry"/>
                </mxCell>
                <mxCell id="120" value="Transformations&amp;nbsp;" style="ellipse;whiteSpace=wrap;html=1;fontSize=30;fontStyle=1;fillColor=#f8cecc;strokeColor=#b85450;sketch=1;curveFitting=1;jiggle=2;" vertex="1" parent="1">
                    <mxGeometry x="1530" y="850" width="280" height="270" as="geometry"/>
                </mxCell>
                <mxCell id="122" style="edgeStyle=none;html=1;entryX=0.014;entryY=0.432;entryDx=0;entryDy=0;entryPerimeter=0;fontFamily=Helvetica;fontSize=12;fontColor=default;" edge="1" parent="1" source="2" target="120">
                    <mxGeometry relative="1" as="geometry"/>
                </mxCell>
                <mxCell id="123" value="Data Normalization &amp;amp; Standardization" style="whiteSpace=wrap;html=1;fontSize=15;fillColor=#f8cecc;strokeColor=#b85450;fontStyle=1;sketch=1;curveFitting=1;jiggle=2;" vertex="1" parent="1">
                    <mxGeometry x="1290" y="630" width="220" height="90" as="geometry"/>
                </mxCell>
                <mxCell id="126" value="&lt;div&gt;&lt;font color=&quot;#000000&quot;&gt;Data Enrichment&lt;/font&gt;&lt;/div&gt;&lt;div&gt;&lt;br&gt;&lt;/div&gt;" style="whiteSpace=wrap;html=1;fontSize=15;fillColor=#f8cecc;strokeColor=#b85450;fontStyle=1;sketch=1;curveFitting=1;jiggle=2;" vertex="1" parent="1">
                    <mxGeometry x="1580" y="640" width="160" height="80" as="geometry"/>
                </mxCell>
                <mxCell id="128" value="&lt;div&gt;&lt;font color=&quot;#000000&quot;&gt;Data Integration&lt;/font&gt;&lt;br&gt;&lt;/div&gt;" style="whiteSpace=wrap;html=1;fontSize=15;fillColor=#f8cecc;strokeColor=#b85450;fontStyle=1;sketch=1;curveFitting=1;jiggle=2;" vertex="1" parent="1">
                    <mxGeometry x="1790" y="640" width="160" height="80" as="geometry"/>
                </mxCell>
                <mxCell id="129" value="&lt;div&gt;&lt;font color=&quot;#000000&quot;&gt;Data Aggreations&lt;/font&gt;&lt;br&gt;&lt;/div&gt;" style="whiteSpace=wrap;html=1;fontSize=15;fillColor=#f8cecc;strokeColor=#b85450;fontStyle=1;sketch=1;curveFitting=1;jiggle=2;" vertex="1" parent="1">
                    <mxGeometry x="1750" y="1170" width="160" height="80" as="geometry"/>
                </mxCell>
                <mxCell id="130" value="&lt;div&gt;&lt;div&gt;&lt;font color=&quot;#000000&quot;&gt;Business Rules &amp;amp; Logic&lt;/font&gt;&lt;/div&gt;&lt;/div&gt;&lt;div&gt;&lt;br&gt;&lt;/div&gt;" style="whiteSpace=wrap;html=1;fontSize=15;fillColor=#f8cecc;strokeColor=#b85450;fontStyle=1;sketch=1;curveFitting=1;jiggle=2;" vertex="1" parent="1">
                    <mxGeometry x="1520" y="1174.72" width="160" height="80" as="geometry"/>
                </mxCell>
                <mxCell id="131" value="&lt;div&gt;&lt;div&gt;&lt;font color=&quot;#000000&quot;&gt;Derived Columns&lt;/font&gt;&lt;/div&gt;&lt;/div&gt;&lt;div&gt;&lt;br&gt;&lt;/div&gt;" style="whiteSpace=wrap;html=1;fontSize=15;fillColor=#f8cecc;strokeColor=#b85450;fontStyle=1;sketch=1;curveFitting=1;jiggle=2;" vertex="1" parent="1">
                    <mxGeometry x="1290" y="1170" width="160" height="80" as="geometry"/>
                </mxCell>
                <mxCell id="145" style="edgeStyle=none;html=1;entryX=0;entryY=0.75;entryDx=0;entryDy=0;fontFamily=Helvetica;fontSize=12;fontColor=default;" edge="1" parent="1" source="137" target="144">
                    <mxGeometry relative="1" as="geometry"/>
                </mxCell>
                <mxCell id="146" style="edgeStyle=none;html=1;entryX=0;entryY=0.75;entryDx=0;entryDy=0;fontFamily=Helvetica;fontSize=12;fontColor=default;" edge="1" parent="1" source="137" target="139">
                    <mxGeometry relative="1" as="geometry"/>
                </mxCell>
                <mxCell id="148" style="edgeStyle=none;html=1;entryX=0;entryY=0.5;entryDx=0;entryDy=0;fontFamily=Helvetica;fontSize=12;fontColor=default;" edge="1" parent="1" source="137" target="141">
                    <mxGeometry relative="1" as="geometry"/>
                </mxCell>
                <mxCell id="149" style="edgeStyle=none;html=1;entryX=0;entryY=0.5;entryDx=0;entryDy=0;fontFamily=Helvetica;fontSize=12;fontColor=default;" edge="1" parent="1" source="137" target="142">
                    <mxGeometry relative="1" as="geometry"/>
                </mxCell>
                <mxCell id="150" style="edgeStyle=none;html=1;entryX=0;entryY=0.5;entryDx=0;entryDy=0;fontFamily=Helvetica;fontSize=12;fontColor=default;" edge="1" parent="1" source="137" target="143">
                    <mxGeometry relative="1" as="geometry"/>
                </mxCell>
                <mxCell id="137" value="Data Cleansing" style="ellipse;whiteSpace=wrap;html=1;fontSize=18;fillColor=#f8cecc;strokeColor=#b85450;fontStyle=1;sketch=1;curveFitting=1;jiggle=2;" vertex="1" parent="1">
                    <mxGeometry x="1935" y="922.5" width="120" height="125" as="geometry"/>
                </mxCell>
                <mxCell id="139" value="&lt;div&gt;&lt;div&gt;&lt;font color=&quot;#000000&quot;&gt;Remove Duplicated&lt;/font&gt;&lt;/div&gt;&lt;/div&gt;" style="whiteSpace=wrap;html=1;fontSize=15;fillColor=#f8cecc;strokeColor=#b85450;fontStyle=1;sketch=1;curveFitting=1;jiggle=2;" vertex="1" parent="1">
                    <mxGeometry x="2130" y="740" width="220" height="80" as="geometry"/>
                </mxCell>
                <mxCell id="140" value="&lt;div&gt;&lt;font color=&quot;#000000&quot;&gt;Outliers Detection&lt;/font&gt;&lt;br&gt;&lt;/div&gt;" style="whiteSpace=wrap;html=1;fontSize=15;fillColor=#f8cecc;strokeColor=#b85450;fontStyle=1;sketch=1;curveFitting=1;jiggle=2;" vertex="1" parent="1">
                    <mxGeometry x="2130" y="860" width="220" height="80" as="geometry"/>
                </mxCell>
                <mxCell id="141" value="&lt;div&gt;&lt;font color=&quot;#000000&quot;&gt;&amp;nbsp;Handling Missing Data&lt;/font&gt;&lt;br&gt;&lt;/div&gt;" style="whiteSpace=wrap;html=1;fontSize=15;fillColor=#f8cecc;strokeColor=#b85450;fontStyle=1;sketch=1;curveFitting=1;jiggle=2;" vertex="1" parent="1">
                    <mxGeometry x="2130" y="967.5" width="220" height="80" as="geometry"/>
                </mxCell>
                <mxCell id="142" value="&lt;div&gt;&lt;font color=&quot;#000000&quot;&gt;Handling Invalid Values&lt;/font&gt;&lt;br&gt;&lt;/div&gt;" style="whiteSpace=wrap;html=1;fontSize=15;fillColor=#f8cecc;strokeColor=#b85450;fontStyle=1;sketch=1;curveFitting=1;jiggle=2;" vertex="1" parent="1">
                    <mxGeometry x="2130" y="1070" width="220" height="80" as="geometry"/>
                </mxCell>
                <mxCell id="143" value="&lt;div&gt;&lt;font color=&quot;#000000&quot;&gt;Handling Unwanted Spaces&lt;/font&gt;&lt;br&gt;&lt;/div&gt;" style="whiteSpace=wrap;html=1;fontSize=15;fillColor=#f8cecc;strokeColor=#b85450;fontStyle=1;sketch=1;curveFitting=1;jiggle=2;" vertex="1" parent="1">
                    <mxGeometry x="2130" y="1180" width="220" height="80" as="geometry"/>
                </mxCell>
                <mxCell id="144" value="&lt;div&gt;&lt;font color=&quot;#000000&quot;&gt;DataType Casting&lt;/font&gt;&lt;br&gt;&lt;/div&gt;" style="whiteSpace=wrap;html=1;fontSize=15;fillColor=#f8cecc;strokeColor=#b85450;fontStyle=1;sketch=1;curveFitting=1;jiggle=2;" vertex="1" parent="1">
                    <mxGeometry x="2130" y="640" width="220" height="80" as="geometry"/>
                </mxCell>
                <mxCell id="147" style="edgeStyle=none;html=1;entryX=0.005;entryY=0.637;entryDx=0;entryDy=0;entryPerimeter=0;fontFamily=Helvetica;fontSize=12;fontColor=default;" edge="1" parent="1" source="137" target="140">
                    <mxGeometry relative="1" as="geometry"/>
                </mxCell>
            </root>
        </mxGraphModel>
    </diagram>
</mxfile>